<svg width="1300" height="1299" xmlns="http://www.w3.org/2000/svg" xmlns:xlink="http://www.w3.org/1999/xlink" xml:space="preserve" overflow="hidden"><defs><clipPath id="clip0"><rect x="1172" y="2144" width="1300" height="1299"/></clipPath></defs><g clip-path="url(#clip0)" transform="translate(-1172 -2144)"><path d="M1172 3210.64 1185.68 3236.96C1197.01 3256.16 1210.5 3274.4 1226.16 3291.67 1301.52 3374.8 1401.46 3424.2 1525.98 3439.88L1562.77 3443 1172 3443ZM2192.29 2237.83C2262.78 2240.19 2320.48 2266.14 2365.39 2315.68 2399.07 2352.83 2415.65 2396.89 2415.13 2447.84 2414.6 2498.79 2396.79 2540.16 2361.67 2571.95 2274.16 2651.16 2207.89 2665.94 2162.87 2616.27 2151.13 2603.32 2145.35 2587.18 2145.53 2567.85 2145.71 2548.52 2151.47 2533.72 2162.82 2523.46 2197.39 2492.16 2221.53 2484.07 2235.23 2499.19 2245.5 2510.52 2253.27 2525.6 2258.54 2544.42 2285.01 2520.47 2281.85 2490.4 2249.06 2454.24 2229.49 2432.64 2205.49 2422.18 2177.08 2422.84 2148.66 2423.5 2124.73 2432.63 2105.29 2450.23 2082.06 2471.26 2073.83 2499.34 2080.61 2534.48 2087.39 2569.62 2104.96 2602.84 2133.35 2634.15 2170.05 2674.64 2216.28 2692 2272.04 2686.25 2327.79 2680.49 2379.17 2656.34 2426.17 2613.8 2446.97 2594.98 2461.62 2573.37 2470.11 2548.97L2472 2539.98 2472 3443 1667.79 3443 1687.67 3441.69C1788.55 3430.81 1871.6 3395.85 1936.83 3336.81 1983.29 3294.76 2012.74 3244.79 2025.18 3186.92 2037.63 3129.04 2039.66 3070.54 2031.29 3011.4 2022.92 2952.26 2003.14 2858.3 1971.96 2729.52 1940.79 2600.74 1930.75 2505.33 1941.86 2443.26 1952.96 2381.2 1977.7 2332.81 2016.05 2298.1 2063.05 2255.56 2121.79 2235.47 2192.29 2237.83ZM2098.95 2144 2472 2144 2472 2443.44 2467.65 2423.14C2454.37 2379.51 2429.75 2337.86 2393.79 2298.18 2319.4 2216.13 2230.67 2165.99 2127.59 2147.75ZM1172 2144 2021.31 2144 2018.9 2144.18C1962.56 2151.61 1912.94 2174.73 1870.06 2213.54 1820.37 2258.53 1790.83 2310.57 1781.46 2369.66 1772.09 2428.76 1774.96 2488.07 1790.08 2547.6 1805.19 2607.13 1829.12 2681.53 1861.86 2770.8 1894.61 2860.08 1917.99 2932.52 1932.01 2988.13 1946.03 3043.73 1949.4 3098.17 1942.12 3151.44 1934.85 3204.71 1909.33 3251.14 1865.57 3290.75 1770.49 3376.81 1667.13 3416.57 1555.47 3410.02 1443.81 3403.48 1350.31 3358.64 1274.95 3275.52 1226.5 3222.08 1206.7 3158.19 1215.53 3083.86 1224.37 3009.53 1257.69 2946.2 1315.49 2893.88 1379.23 2836.18 1441.22 2800.96 1501.46 2788.2 1561.69 2775.45 1611.13 2790.39 1649.79 2833.04 1679.15 2865.43 1692.09 2903.84 1688.6 2948.27 1685.12 2992.7 1666.9 3029.83 1633.94 3059.65 1608.01 3083.12 1577.33 3098.37 1541.89 3105.38 1506.46 3112.4 1478.95 3105.11 1459.38 3083.52 1434.42 3055.99 1437.07 3028.53 1467.32 3001.15 1479.2 2990.4 1502.44 2995.41 1537.01 3016.19 1543.57 2998.47 1539.99 2982.05 1526.29 2966.94 1508.67 2947.5 1488.97 2936.35 1467.18 2933.47 1445.39 2930.59 1426.12 2936.73 1409.38 2951.88 1392.63 2967.04 1383.15 2986.68 1380.92 3010.81 1378.7 3034.93 1385.9 3056.17 1402.54 3074.53 1441.69 3117.71 1491.95 3142.24 1553.33 3148.1 1614.7 3153.97 1666.19 3138.07 1707.79 3100.42 1747.22 3064.73 1765.11 3021.27 1761.45 2970.04 1757.79 2918.81 1733.69 2868.63 1689.16 2819.51 1641.21 2766.61 1571.64 2735.98 1480.46 2727.61 1389.27 2719.24 1315.32 2740.73 1258.6 2792.07 1223.22 2824.1 1195.83 2860.61 1176.45 2901.62L1172 2912.42Z" fill="#FFFFFF" fill-rule="evenodd"/></g></svg>