<svg width="1299" height="1299" xmlns="http://www.w3.org/2000/svg" xmlns:xlink="http://www.w3.org/1999/xlink" xml:space="preserve" overflow="hidden"><defs><clipPath id="clip0"><rect x="2972" y="1199" width="1299" height="1299"/></clipPath></defs><g clip-path="url(#clip0)" transform="translate(-2972 -1199)"><path d="M3829.5 1282.19C3770.45 1283.34 3719.48 1303.34 3676.6 1342.19 3635.18 1379.71 3610.56 1423.12 3602.75 1472.41 3594.94 1521.7 3597.33 1571.17 3609.93 1620.82 3622.53 1670.48 3642.48 1732.54 3669.76 1807 3697.05 1881.47 3716.54 1941.89 3728.23 1988.27 3739.91 2034.65 3742.72 2080.06 3736.66 2124.49 3730.59 2168.92 3709.32 2207.65 3672.85 2240.69 3593.61 2312.47 3507.46 2345.63 3414.4 2340.18 3321.34 2334.72 3243.4 2297.32 3180.59 2227.98 3140.22 2183.41 3123.71 2130.12 3131.07 2068.12 3138.44 2006.12 3166.21 1953.3 3214.38 1909.66 3267.51 1861.53 3319.18 1832.15 3369.38 1821.52 3419.58 1810.88 3460.79 1823.34 3493.01 1858.91 3517.48 1885.93 3528.26 1917.96 3525.36 1955.02 3522.45 1992.08 3507.27 2023.05 3479.8 2047.93 3458.19 2067.51 3432.62 2080.22 3403.08 2086.08 3373.55 2091.93 3350.62 2085.85 3334.31 2067.84 3313.51 2044.88 3315.71 2021.98 3340.93 1999.14 3350.83 1990.16 3370.19 1994.35 3399.01 2011.68 3404.48 1996.9 3401.5 1983.2 3390.08 1970.6 3375.39 1954.39 3358.97 1945.08 3340.81 1942.68 3322.65 1940.28 3306.59 1945.4 3292.64 1958.04 3278.68 1970.69 3270.77 1987.07 3268.92 2007.19 3267.06 2027.31 3273.07 2045.03 3286.94 2060.34 3319.56 2096.36 3361.46 2116.81 3412.61 2121.71 3463.77 2126.6 3506.68 2113.34 3541.35 2081.94 3574.21 2052.17 3589.12 2015.91 3586.07 1973.18 3583.02 1930.45 3562.94 1888.6 3525.83 1847.63 3485.86 1803.51 3427.87 1777.95 3351.88 1770.97 3275.88 1763.99 3214.24 1781.92 3166.97 1824.74 3107.98 1878.17 3075.68 1946.57 3070.06 2029.95 3064.43 2113.32 3087.72 2183.83 3139.93 2241.46 3211.71 2320.7 3310.25 2363.2 3435.56 2368.96 3560.86 2374.72 3659.76 2344.77 3732.24 2279.11 3770.97 2244.03 3795.51 2202.36 3805.88 2154.08 3816.26 2105.81 3817.95 2057.01 3810.97 2007.68 3804 1958.35 3787.51 1879.98 3761.53 1772.57 3735.54 1665.16 3727.18 1585.57 3736.44 1533.8 3745.69 1482.04 3766.3 1441.67 3798.27 1412.72 3837.44 1377.23 3886.41 1360.48 3945.16 1362.44 4003.91 1364.41 4052 1386.06 4089.43 1427.38 4117.51 1458.37 4131.32 1495.12 4130.89 1537.62 4130.45 1580.12 4115.6 1614.62 4086.33 1641.13 4013.39 1707.21 3958.16 1719.53 3920.64 1678.11 3910.85 1667.3 3906.03 1653.84 3906.19 1637.72 3906.34 1621.6 3911.14 1609.25 3920.6 1600.69 3949.41 1574.59 3969.53 1567.84 3980.95 1580.45 3989.51 1589.9 3995.99 1602.48 4000.37 1618.18 4022.44 1598.19 4019.8 1573.12 3992.48 1542.95 3976.16 1524.94 3956.17 1516.21 3932.48 1516.76 3908.8 1517.31 3888.85 1524.93 3872.65 1539.61 3853.29 1557.15 3846.43 1580.57 3852.08 1609.88 3857.73 1639.2 3872.38 1666.91 3896.03 1693.02 3926.62 1726.79 3965.15 1741.27 4011.63 1736.47 4058.1 1731.67 4100.92 1711.53 4140.09 1676.05 4174.76 1644.64 4188.92 1603.95 4182.57 1553.96 4176.23 1503.97 4153.07 1456.91 4113.1 1412.79 4051.11 1344.35 3977.15 1302.52 3891.24 1287.31 3869.76 1283.51 3849.18 1281.8 3829.5 1282.19ZM2972 1199 4271 1199 4271 2498 2972 2498Z" fill="#FFFFFF" fill-rule="evenodd"/></g></svg>