<svg width="1299" height="1299" xmlns="http://www.w3.org/2000/svg" xmlns:xlink="http://www.w3.org/1999/xlink" xml:space="preserve" overflow="hidden"><defs><clipPath id="clip0"><rect x="-897" y="697" width="1299" height="1299"/></clipPath></defs><g clip-path="url(#clip0)" transform="translate(897 -697)"><path d="M-897 1763.64-883.325 1789.96C-872.012 1809.16-858.531 1827.4-842.884 1844.67-767.583 1927.8-667.717 1977.2-543.288 1992.88L-506.536 1996-897 1996ZM122.501 790.825C192.938 793.185 250.596 819.137 295.474 868.68 329.129 905.833 345.695 949.887 345.172 1000.84 344.649 1051.79 326.844 1093.16 291.757 1124.95 204.31 1204.16 138.094 1218.94 93.1085 1169.27 81.3736 1156.32 75.5966 1140.18 75.7778 1120.85 75.9592 1101.52 81.7178 1086.72 93.0533 1076.46 127.6 1045.16 151.719 1037.07 165.411 1052.19 175.679 1063.52 183.442 1078.6 188.7 1097.42 215.15 1073.46 211.994 1043.4 179.233 1007.24 159.674 985.644 135.699 975.178 107.306 975.838 78.913 976.497 55.0005 985.629 35.5679 1003.23 12.3566 1024.26 4.13721 1052.34 10.909 1087.48 17.681 1122.62 35.2471 1155.85 63.6075 1187.15 100.28 1227.64 146.474 1245 202.19 1239.25 257.905 1233.49 309.244 1209.34 356.206 1166.8 376.989 1147.98 391.624 1126.37 400.113 1101.97L402 1092.98 402 1996-401.588 1996-381.725 1994.69C-280.928 1983.81-197.94 1948.85-132.759 1889.81-86.3364 1847.76-56.9078 1797.79-44.4732 1739.92-32.0385 1682.04-30.0038 1623.54-38.3701 1564.4-46.7357 1505.26-66.4963 1411.3-97.6509 1282.52-128.806 1153.74-138.834 1058.33-127.735 996.264-116.636 934.202-91.9239 885.813-53.5983 851.096-6.63623 808.556 52.0638 788.465 122.501 790.825ZM29.241 697 402 697 402 996.438 397.652 976.139C384.387 932.508 359.785 890.855 323.845 851.18 249.521 769.131 160.86 718.988 57.8594 700.751ZM-897 697-48.3399 697-50.7498 697.179C-107.052 704.61-156.626 727.732-199.472 766.544-249.133 811.529-278.646 863.568-288.011 922.662-297.376 981.756-294.505 1041.07-279.399 1100.6-264.293 1160.13-240.382 1234.53-207.666 1323.8-174.951 1413.08-151.588 1485.52-137.576 1541.13-123.565 1596.73-120.196 1651.17-127.468 1704.44-134.741 1757.71-160.239 1804.14-203.962 1843.75-298.966 1929.81-402.253 1969.57-513.824 1963.02-625.394 1956.48-718.83 1911.64-794.132 1828.52-842.54 1775.08-862.33 1711.19-853.501 1636.86-844.672 1562.53-811.379 1499.2-753.621 1446.88-689.925 1389.18-627.984 1353.96-567.797 1341.2-507.611 1328.45-458.203 1343.39-419.575 1386.04-390.236 1418.43-377.309 1456.84-380.794 1501.27-384.277 1545.7-402.484 1582.83-435.411 1612.65-461.321 1636.12-491.981 1651.37-527.391 1658.38-562.802 1665.4-590.286 1658.11-609.845 1636.52-634.782 1608.99-632.137 1581.54-601.908 1554.15-590.033 1543.4-566.819 1548.41-532.267 1569.19-525.719 1551.47-529.291 1535.05-542.982 1519.94-560.585 1500.5-580.273 1489.35-602.045 1486.47-623.817 1483.59-643.07 1489.73-659.804 1504.88-676.538 1520.04-686.016 1539.68-688.239 1563.81-690.462 1587.93-683.261 1609.17-666.636 1627.53-627.519 1670.71-577.295 1695.24-515.966 1701.1-454.637 1706.97-403.19 1691.08-361.626 1653.42-322.221 1617.73-304.347 1574.27-308.004 1523.04-311.66 1471.81-335.737 1421.63-380.234 1372.51-428.153 1319.61-497.669 1288.98-588.781 1280.61-679.893 1272.24-753.789 1293.73-810.467 1345.07-845.824 1377.1-873.184 1413.61-892.549 1454.62L-897 1465.41Z" fill="#2C60C8" fill-rule="evenodd"/></g></svg>